<?xml version="1.0"?>
<mxfile host="embed.diagrams.net" modified="2020-07-31T07:01:52.981Z" agent="5.0 (X11; Linux x86_64) AppleWebKit/537.36 (KHTML, like Gecko) Chrome/84.0.4147.105 Safari/537.36" etag="5QpJJwF-OqXSr8ekDda9" version="13.5.7" pages="3">
  <diagram name="Neighboring edge" id="iE4F3DpPNNiUmn9dR63p">
    <mxGraphModel dx="2" dy="1" grid="1" gridSize="10" guides="1" tooltips="1" connect="1" arrows="1" fold="1" page="1" pageScale="1" pageWidth="1654" pageHeight="1169" math="1" shadow="0">
      <root>
        <mxCell id="hb5PgsyGbu0ehmoV5AL3-0"/>
        <mxCell id="hb5PgsyGbu0ehmoV5AL3-1" parent="hb5PgsyGbu0ehmoV5AL3-0"/>
        <mxCell id="hb5PgsyGbu0ehmoV5AL3-2" value="`A`&lt;br&gt;&lt;div&gt;&lt;br&gt;&lt;/div&gt;&lt;div&gt;&lt;br&gt;&lt;/div&gt;" style="whiteSpace=wrap;html=1;rounded=0;shadow=0;strokeWidth=1;fillColor=#6d8764;fontSize=24;align=right;strokeColor=#3A5431;" parent="hb5PgsyGbu0ehmoV5AL3-1" vertex="1">
          <mxGeometry x="273.42" y="120" width="20" height="20" as="geometry"/>
        </mxCell>
        <mxCell id="hb5PgsyGbu0ehmoV5AL3-3" value="`B`&lt;br&gt;&lt;br&gt;&lt;div&gt;&lt;br&gt;&lt;/div&gt;" style="whiteSpace=wrap;html=1;rounded=0;shadow=0;strokeWidth=1;fillColor=#e51400;fontSize=24;align=right;strokeColor=#B20000;" parent="hb5PgsyGbu0ehmoV5AL3-1" vertex="1">
          <mxGeometry x="654" y="180" width="20" height="20" as="geometry"/>
        </mxCell>
        <mxCell id="hb5PgsyGbu0ehmoV5AL3-4" value="" style="endArrow=none;html=1;strokeWidth=3;fillColor=#76608a;strokeColor=#B3B3B3;" parent="hb5PgsyGbu0ehmoV5AL3-1" source="hb5PgsyGbu0ehmoV5AL3-31" target="hb5PgsyGbu0ehmoV5AL3-10" edge="1">
          <mxGeometry width="50" height="50" relative="1" as="geometry">
            <mxPoint x="820" y="200" as="sourcePoint"/>
            <mxPoint x="480" y="240" as="targetPoint"/>
          </mxGeometry>
        </mxCell>
        <mxCell id="hb5PgsyGbu0ehmoV5AL3-5" value="" style="endArrow=none;html=1;strokeWidth=3;fillColor=#76608a;strokeColor=#B3B3B3;" parent="hb5PgsyGbu0ehmoV5AL3-1" source="hb5PgsyGbu0ehmoV5AL3-6" edge="1">
          <mxGeometry width="50" height="50" relative="1" as="geometry">
            <mxPoint x="480" y="240" as="sourcePoint"/>
            <mxPoint x="160" y="160" as="targetPoint"/>
          </mxGeometry>
        </mxCell>
        <mxCell id="hb5PgsyGbu0ehmoV5AL3-6" value="" style="ellipse;whiteSpace=wrap;html=1;aspect=fixed;fillColor=#d5e8d4;strokeColor=#82b366;rotation=5;" parent="hb5PgsyGbu0ehmoV5AL3-1" vertex="1">
          <mxGeometry x="253" y="184" width="20.42" height="20.42" as="geometry"/>
        </mxCell>
        <mxCell id="hb5PgsyGbu0ehmoV5AL3-7" style="edgeStyle=orthogonalEdgeStyle;rounded=0;orthogonalLoop=1;jettySize=auto;html=1;exitX=0.5;exitY=1;exitDx=0;exitDy=0;strokeColor=#B3B3B3;strokeWidth=3;fontColor=#000000;" parent="hb5PgsyGbu0ehmoV5AL3-1" source="hb5PgsyGbu0ehmoV5AL3-19" target="hb5PgsyGbu0ehmoV5AL3-19" edge="1">
          <mxGeometry relative="1" as="geometry"/>
        </mxCell>
        <mxCell id="hb5PgsyGbu0ehmoV5AL3-8" style="edgeStyle=none;orthogonalLoop=1;jettySize=auto;html=1;endArrow=none;strokeColor=#B3B3B3;strokeWidth=3;fillColor=#76608a;" parent="hb5PgsyGbu0ehmoV5AL3-1" source="hb5PgsyGbu0ehmoV5AL3-10" target="hb5PgsyGbu0ehmoV5AL3-28" edge="1">
          <mxGeometry relative="1" as="geometry"/>
        </mxCell>
        <mxCell id="hb5PgsyGbu0ehmoV5AL3-9" style="edgeStyle=none;curved=1;orthogonalLoop=1;jettySize=auto;html=1;strokeColor=#994C00;strokeWidth=2;" parent="hb5PgsyGbu0ehmoV5AL3-1" source="hb5PgsyGbu0ehmoV5AL3-10" target="hb5PgsyGbu0ehmoV5AL3-28" edge="1">
          <mxGeometry relative="1" as="geometry">
            <Array as="points">
              <mxPoint x="530" y="330"/>
            </Array>
          </mxGeometry>
        </mxCell>
        <mxCell id="hb5PgsyGbu0ehmoV5AL3-10" value="" style="ellipse;whiteSpace=wrap;html=1;aspect=fixed;fillColor=#1ba1e2;strokeColor=#006EAF;rotation=5;fontColor=#ffffff;" parent="hb5PgsyGbu0ehmoV5AL3-1" vertex="1">
          <mxGeometry x="540" y="270" width="20" height="20" as="geometry"/>
        </mxCell>
        <mxCell id="hb5PgsyGbu0ehmoV5AL3-11" style="edgeStyle=none;curved=1;orthogonalLoop=1;jettySize=auto;html=1;strokeColor=#994C00;strokeWidth=2;" parent="hb5PgsyGbu0ehmoV5AL3-1" source="hb5PgsyGbu0ehmoV5AL3-10" target="hb5PgsyGbu0ehmoV5AL3-16" edge="1">
          <mxGeometry relative="1" as="geometry">
            <Array as="points">
              <mxPoint x="380" y="120"/>
            </Array>
          </mxGeometry>
        </mxCell>
        <mxCell id="hb5PgsyGbu0ehmoV5AL3-12" style="edgeStyle=none;curved=1;orthogonalLoop=1;jettySize=auto;html=1;strokeColor=#994C00;strokeWidth=2;" parent="hb5PgsyGbu0ehmoV5AL3-1" source="hb5PgsyGbu0ehmoV5AL3-10" target="hb5PgsyGbu0ehmoV5AL3-14" edge="1">
          <mxGeometry relative="1" as="geometry">
            <Array as="points">
              <mxPoint x="710" y="290"/>
            </Array>
            <mxPoint x="489.999812928711" y="240.35883308726704" as="sourcePoint"/>
          </mxGeometry>
        </mxCell>
        <mxCell id="hb5PgsyGbu0ehmoV5AL3-13" style="edgeStyle=none;curved=1;orthogonalLoop=1;jettySize=auto;html=1;strokeColor=#994C00;strokeWidth=2;" parent="hb5PgsyGbu0ehmoV5AL3-1" source="hb5PgsyGbu0ehmoV5AL3-14" target="hb5PgsyGbu0ehmoV5AL3-10" edge="1">
          <mxGeometry relative="1" as="geometry">
            <Array as="points">
              <mxPoint x="660" y="180"/>
            </Array>
            <mxPoint x="489.59200007839013" y="237.5927160567029" as="targetPoint"/>
          </mxGeometry>
        </mxCell>
        <mxCell id="hb5PgsyGbu0ehmoV5AL3-14" value="" style="ellipse;whiteSpace=wrap;html=1;aspect=fixed;fillColor=#f5f5f5;strokeColor=#666666;rotation=5;fontColor=#333333;" parent="hb5PgsyGbu0ehmoV5AL3-1" vertex="1">
          <mxGeometry x="810" y="190.42" width="20" height="20" as="geometry"/>
        </mxCell>
        <mxCell id="hb5PgsyGbu0ehmoV5AL3-15" style="edgeStyle=none;curved=1;orthogonalLoop=1;jettySize=auto;html=1;strokeColor=#994C00;strokeWidth=2;" parent="hb5PgsyGbu0ehmoV5AL3-1" source="hb5PgsyGbu0ehmoV5AL3-16" target="hb5PgsyGbu0ehmoV5AL3-10" edge="1">
          <mxGeometry relative="1" as="geometry">
            <Array as="points">
              <mxPoint x="290" y="250"/>
            </Array>
          </mxGeometry>
        </mxCell>
        <mxCell id="hb5PgsyGbu0ehmoV5AL3-16" value="" style="ellipse;whiteSpace=wrap;html=1;aspect=fixed;fillColor=#f5f5f5;strokeColor=#666666;rotation=5;fontColor=#333333;" parent="hb5PgsyGbu0ehmoV5AL3-1" vertex="1">
          <mxGeometry x="149.99999999999994" y="150" width="20" height="20" as="geometry"/>
        </mxCell>
        <mxCell id="hb5PgsyGbu0ehmoV5AL3-17" value="&lt;div&gt;&lt;font style=&quot;font-size: 16px&quot;&gt;`c_1^B`&lt;/font&gt;&lt;/div&gt;" style="text;html=1;strokeColor=none;fillColor=none;align=center;verticalAlign=middle;whiteSpace=wrap;rounded=0;fontColor=#000000;" parent="hb5PgsyGbu0ehmoV5AL3-1" vertex="1">
          <mxGeometry x="674" y="209.99999999999994" width="40" height="20" as="geometry"/>
        </mxCell>
        <mxCell id="hb5PgsyGbu0ehmoV5AL3-18" value="" style="endArrow=none;html=1;strokeWidth=3;fillColor=#76608a;strokeColor=#B3B3B3;" parent="hb5PgsyGbu0ehmoV5AL3-1" source="hb5PgsyGbu0ehmoV5AL3-10" target="hb5PgsyGbu0ehmoV5AL3-6" edge="1">
          <mxGeometry width="50" height="50" relative="1" as="geometry">
            <mxPoint x="424.41129729108343" y="242.1615531782063" as="sourcePoint"/>
            <mxPoint x="170" y="170.0000000000001" as="targetPoint"/>
          </mxGeometry>
        </mxCell>
        <mxCell id="hb5PgsyGbu0ehmoV5AL3-19" value="&lt;font style=&quot;font-size: 16px&quot;&gt;`c_1^A`&lt;/font&gt;" style="text;html=1;strokeColor=none;fillColor=none;align=center;verticalAlign=middle;whiteSpace=wrap;rounded=0;fontColor=#000000;" parent="hb5PgsyGbu0ehmoV5AL3-1" vertex="1">
          <mxGeometry x="260.00000000000006" y="164" width="40" height="20" as="geometry"/>
        </mxCell>
        <mxCell id="hb5PgsyGbu0ehmoV5AL3-20" value="" style="endArrow=block;html=1;fillColor=#fff2cc;strokeColor=#EA6B66;strokeWidth=5;endFill=1;" parent="hb5PgsyGbu0ehmoV5AL3-1" source="hb5PgsyGbu0ehmoV5AL3-6" edge="1">
          <mxGeometry width="50" height="50" relative="1" as="geometry">
            <mxPoint x="410.4749027158893" y="160.00284049438736" as="sourcePoint"/>
            <mxPoint x="315" y="209" as="targetPoint"/>
          </mxGeometry>
        </mxCell>
        <mxCell id="hb5PgsyGbu0ehmoV5AL3-21" value="" style="endArrow=block;html=1;fillColor=#fff2cc;strokeColor=#EA6B66;strokeWidth=5;endFill=1;" parent="hb5PgsyGbu0ehmoV5AL3-1" target="hb5PgsyGbu0ehmoV5AL3-31" edge="1">
          <mxGeometry width="50" height="50" relative="1" as="geometry">
            <mxPoint x="632" y="255" as="sourcePoint"/>
            <mxPoint x="661.3991537500881" y="266.10290306104923" as="targetPoint"/>
          </mxGeometry>
        </mxCell>
        <mxCell id="hb5PgsyGbu0ehmoV5AL3-22" value="&lt;b&gt;Legend&lt;/b&gt;" style="text;html=1;strokeColor=none;align=center;verticalAlign=middle;whiteSpace=wrap;rounded=0;fillColor=#a8ca40;fontColor=#FFFFFF;" parent="hb5PgsyGbu0ehmoV5AL3-1" vertex="1">
          <mxGeometry x="690.21" y="329.99999999999994" width="139.79" height="20" as="geometry"/>
        </mxCell>
        <mxCell id="hb5PgsyGbu0ehmoV5AL3-23" value="Street map `M`" style="text;html=1;strokeColor=none;fillColor=none;align=left;verticalAlign=middle;whiteSpace=wrap;rounded=0;" parent="hb5PgsyGbu0ehmoV5AL3-1" vertex="1">
          <mxGeometry x="740.6300000000001" y="360" width="89.37" height="20" as="geometry"/>
        </mxCell>
        <mxCell id="hb5PgsyGbu0ehmoV5AL3-24" value="" style="curved=1;html=1;strokeColor=#994C00;fontColor=#000000;fontSize=11;rounded=1;strokeWidth=2;" parent="hb5PgsyGbu0ehmoV5AL3-1" edge="1">
          <mxGeometry width="50" height="50" relative="1" as="geometry">
            <mxPoint x="690" y="390" as="sourcePoint"/>
            <mxPoint x="730" y="390" as="targetPoint"/>
            <Array as="points"/>
          </mxGeometry>
        </mxCell>
        <mxCell id="hb5PgsyGbu0ehmoV5AL3-25" value="&lt;span style=&quot;text-align: right&quot;&gt;Street graph `G`&lt;/span&gt;" style="text;html=1;strokeColor=none;fillColor=none;align=left;verticalAlign=middle;whiteSpace=wrap;rounded=0;" parent="hb5PgsyGbu0ehmoV5AL3-1" vertex="1">
          <mxGeometry x="740.6300000000001" y="380" width="89.37" height="20" as="geometry"/>
        </mxCell>
        <mxCell id="hb5PgsyGbu0ehmoV5AL3-26" value="" style="endArrow=none;html=1;strokeWidth=3;fillColor=#76608a;strokeColor=#B3B3B3;" parent="hb5PgsyGbu0ehmoV5AL3-1" edge="1">
          <mxGeometry width="50" height="50" relative="1" as="geometry">
            <mxPoint x="730" y="370" as="sourcePoint"/>
            <mxPoint x="690" y="370" as="targetPoint"/>
          </mxGeometry>
        </mxCell>
        <mxCell id="hb5PgsyGbu0ehmoV5AL3-27" style="edgeStyle=none;curved=1;orthogonalLoop=1;jettySize=auto;html=1;strokeColor=#994C00;strokeWidth=2;" parent="hb5PgsyGbu0ehmoV5AL3-1" source="hb5PgsyGbu0ehmoV5AL3-28" target="hb5PgsyGbu0ehmoV5AL3-10" edge="1">
          <mxGeometry relative="1" as="geometry">
            <Array as="points">
              <mxPoint x="570" y="340"/>
            </Array>
          </mxGeometry>
        </mxCell>
        <mxCell id="hb5PgsyGbu0ehmoV5AL3-28" value="" style="ellipse;whiteSpace=wrap;html=1;aspect=fixed;fillColor=#f5f5f5;strokeColor=#666666;rotation=5;fontColor=#333333;" parent="hb5PgsyGbu0ehmoV5AL3-1" vertex="1">
          <mxGeometry x="540" y="380" width="20" height="20" as="geometry"/>
        </mxCell>
        <mxCell id="hb5PgsyGbu0ehmoV5AL3-31" value="" style="ellipse;whiteSpace=wrap;html=1;aspect=fixed;fillColor=#f8cecc;strokeColor=#b85450;" parent="hb5PgsyGbu0ehmoV5AL3-1" vertex="1">
          <mxGeometry x="674" y="230" width="20" height="20" as="geometry"/>
        </mxCell>
        <mxCell id="hb5PgsyGbu0ehmoV5AL3-32" value="" style="endArrow=none;html=1;strokeWidth=3;fillColor=#76608a;strokeColor=#B3B3B3;" parent="hb5PgsyGbu0ehmoV5AL3-1" target="hb5PgsyGbu0ehmoV5AL3-31" edge="1">
          <mxGeometry width="50" height="50" relative="1" as="geometry">
            <mxPoint x="820" y="200" as="sourcePoint"/>
            <mxPoint x="559.5882399952975" y="277.1599905295036" as="targetPoint"/>
          </mxGeometry>
        </mxCell>
      </root>
    </mxGraphModel>
  </diagram>
</mxfile>
